# xmcd
#
# Track frame offsets:
#	150
#	14898
#	34914
#	69628
#	89411
#	105729
#	128383
#
# Disc length: 1976 seconds
#
# Revision: 6
# Processed by: cddbd v1.5.2PL0 Copyright (c) Steve Scherf et al.
# Submitted via: EasyCDDAExtractor 12.0.1.1
#
DISCID=5b07b607
DTITLE=Animals - Live at the Club A Go Go
DYEAR=1973
DGENRE=Blues
TTITLE0=Let It Rock
TTITLE1=Gotta Find My Baby
TTITLE2=Bo Diddley
TTITLE3=Almost Grown
TTITLE4=Dimples
TTITLE5=Boom Boom
TTITLE6=C. Jam Blues
EXTD=Classic Blues - cdcd1037
EXTT0=
EXTT1=
EXTT2=
EXTT3=
EXTT4=
EXTT5=
EXTT6=
PLAYORDER=
